<svg width="252" height="72" xmlns="http://www.w3.org/2000/svg"><g fill="none" fill-rule="evenodd"><path d="M0 35.76v-.15c0-15.39 11.6-28 28.23-28 10.21 0 16.32 3.4 21.34 8.35l-7.58 8.74c-4.18-3.79-8.43-6.11-13.84-6.11-9.12 0-15.7 7.58-15.7 16.86v.15c0 9.28 6.42 17 15.7 17 6.19 0 10-2.47 14.23-6.34l7.57 7.7c-5.57 6-11.75 9.67-22.19 9.67C11.83 63.6 0 51.3 0 35.76zM59.47 8.54h24.75c6.88 0 12.22 1.93 15.78 5.49 3 3 4.64 7.27 4.64 12.37v.15c0 8.74-4.72 14.23-11.6 16.78l13.22 19.33H92.34l-11.6-17.31h-9.36v17.32H59.47V8.54zm24 26.29c5.8 0 9.13-3.09 9.13-7.66v-.15c0-5.1-3.56-7.73-9.36-7.73H71.38v15.54h12.09zM112.99 35.76v-.15c0-15.39 11.6-28 28.23-28 10.21 0 16.32 3.4 21.34 8.35l-7.58 8.74c-4.18-3.79-8.43-6.11-13.84-6.11-9.12 0-15.7 7.58-15.7 16.86v.15c0 9.28 6.42 17 15.7 17 6.19 0 10-2.47 14.23-6.34l7.53 7.7c-5.57 6-11.75 9.67-22.19 9.67-15.89-.03-27.72-12.33-27.72-27.87zM183.98 17.78a5.34 5.34 0 015.44-5.46 5.5 5.5 0 014.14 1.64l-1.19 1.37a4.2 4.2 0 00-3-1.31 3.54 3.54 0 00-3.47 3.7 3.57 3.57 0 003.48 3.75 4.14 4.14 0 003-1.37l1.19 1.21a5.45 5.45 0 01-4.28 1.87 5.31 5.31 0 01-5.31-5.4zM195.36 15.07h1.82v1.79a2.82 2.82 0 012.83-1.9v1.93h-.11c-1.6 0-2.71 1-2.71 3.15v3h-1.82l-.01-7.97zM200.9 19.08a4 4 0 013.89-4.15c2.53 0 3.81 2 3.81 4.28v.51h-5.85a2.22 2.22 0 002.29 2 2.89 2.89 0 002.16-.95l1.07.95a4 4 0 01-3.26 1.49 4 4 0 01-4.11-4.13zm5.89-.59a2.07 2.07 0 00-2-2.1 2.15 2.15 0 00-2.07 2.1h4.07zM210.02 19.07a3.8 3.8 0 013.69-4.13 3.29 3.29 0 012.71 1.4v-4.32h1.82v11h-1.82V21.7a3.19 3.19 0 01-2.71 1.49 3.82 3.82 0 01-3.69-4.12zm6.44 0a2.39 2.39 0 00-2.31-2.55 2.33 2.33 0 00-2.25 2.52 2.37 2.37 0 002.29 2.55 2.4 2.4 0 002.27-2.52zM220.56 12.12h2v1.73h-2v-1.73zm.08 3h1.82v8h-1.82v-8zM225.22 20.83v-4.19h-1v-1.57h1v-2.19h1.82v2.19h2.14v1.57h-2.14v3.9a.87.87 0 001 1c.393.002.78-.09 1.13-.27v1.49a3.19 3.19 0 01-1.64.41 2 2 0 01-2.31-2.34zM184.45 30.07h4.7a4.25 4.25 0 013 1.06 3.19 3.19 0 01.88 2.28 3.17 3.17 0 01-2.52 3.2l2.85 4h-2.19l-2.54-3.65h-2.33v3.68h-1.85V30.07zm4.57 5.23c1.33 0 2.17-.69 2.17-1.76 0-1.13-.81-1.75-2.19-1.75h-2.7v3.54l2.72-.03zM194.55 36.67a4 4 0 013.89-4.15c2.53 0 3.81 2 3.81 4.28v.51h-5.85a2.22 2.22 0 002.29 2 2.89 2.89 0 002.16-.95l1.07.95a4 4 0 01-3.26 1.49 4 4 0 01-4.11-4.13zm5.89-.59a2.07 2.07 0 00-2-2.1 2.15 2.15 0 00-2.07 2.1h4.07zM203.45 39.58l.81-1.24a4.47 4.47 0 002.61 1c.78 0 1.24-.33 1.24-.86 0-.62-.84-.83-1.78-1.12-1.18-.33-2.49-.81-2.49-2.34 0-1.51 1.25-2.43 2.83-2.43a5.52 5.52 0 012.92.9l-.72 1.3a4.62 4.62 0 00-2.25-.75c-.71 0-1.12.33-1.12.8 0 .57.86.81 1.79 1.12 1.16.36 2.47.89 2.47 2.32 0 1.67-1.3 2.5-3 2.5a5.59 5.59 0 01-3.31-1.2zM211.2 36.67a4 4 0 013.89-4.15c2.53 0 3.81 2 3.81 4.28v.51h-5.85a2.22 2.22 0 002.29 2 2.89 2.89 0 002.16-.95l1.07.95a4 4 0 01-3.26 1.49 4 4 0 01-4.11-4.13zm5.89-.59a2.07 2.07 0 00-2-2.1 2.15 2.15 0 00-2.07 2.1h4.07zM225.61 40.62v-1a3.22 3.22 0 01-2.58 1.15 2.55 2.55 0 01-2.83-2.46c0-1.76 1.37-2.61 3.23-2.61a6.71 6.71 0 012.2.33v-.15c0-1.1-.69-1.7-2-1.7a5.54 5.54 0 00-2.28.5l-.5-1.46a6.83 6.83 0 013-.66c2.35 0 3.5 1.24 3.5 3.36v4.72l-1.74-.02zm0-3.33a5.21 5.21 0 00-1.82-.32c-1.15 0-1.82.47-1.82 1.24 0 .75.68 1.18 1.54 1.18 1.21 0 2.11-.68 2.11-1.67l-.01-.43zM229.59 32.66h1.82v1.79a2.82 2.82 0 012.82-1.94v1.93h-.11c-1.6 0-2.71 1-2.71 3.15v3h-1.82v-7.93zM235.11 36.69a4.1 4.1 0 014.13-4.16 4 4 0 013.18 1.37l-1.13 1.22a2.68 2.68 0 00-2.07-1 2.39 2.39 0 00-2.32 2.5 2.42 2.42 0 002.38 2.56 2.8 2.8 0 002.07-1l1.1 1.08a4.17 4.17 0 01-7.37-2.62l.03.05zM244.15 29.61h1.82v4.28a2.86 2.86 0 012.49-1.4 2.73 2.73 0 012.83 3.06v5.07h-1.82V36.1c0-1.24-.62-1.94-1.7-1.94a1.77 1.77 0 00-1.79 2v4.49h-1.82l-.01-11.04zM183.98 52.96a5.34 5.34 0 015.44-5.46 5.5 5.5 0 014.13 1.64l-1.19 1.37a4.2 4.2 0 00-3-1.31 3.54 3.54 0 00-3.46 3.7 3.57 3.57 0 003.48 3.75 4.13 4.13 0 003-1.37l1.19 1.21a5.45 5.45 0 01-4.28 1.87 5.31 5.31 0 01-5.31-5.4zM194.78 54.26a4 4 0 013.89-4.15c2.53 0 3.81 2 3.81 4.28v.51h-5.88a2.22 2.22 0 002.29 2 2.89 2.89 0 002.16-1l1.07 1a4 4 0 01-3.22 1.49 4 4 0 01-4.12-4.13zm5.89-.59a2.07 2.07 0 00-2-2.1 2.15 2.15 0 00-2.07 2.1h4.07zM204.32 50.25h1.82v1.24a2.86 2.86 0 012.49-1.4 2.73 2.73 0 012.83 3.06v5.07h-1.82v-4.53c0-1.24-.62-1.95-1.7-1.95a1.77 1.77 0 00-1.79 2v4.49h-1.82l-.01-7.98zM214.05 55.96v-4.14h-1v-1.57h1v-2.19h1.85v2.19h2.14v1.57h-2.14v3.9a.87.87 0 001 1c.393.002.78-.09 1.13-.27v1.51a3.19 3.19 0 01-1.64.41 2 2 0 01-2.34-2.41zM219.9 50.25h1.82v1.79a2.82 2.82 0 012.82-1.94v1.93h-.11c-1.6 0-2.71 1-2.71 3.15v3h-1.82v-7.93zM225.37 54.26a4 4 0 013.89-4.15c2.53 0 3.81 2 3.81 4.28v.51h-5.85a2.22 2.22 0 002.29 2 2.89 2.89 0 002.16-1l1.07 1a4 4 0 01-3.26 1.49 4 4 0 01-4.11-4.13zm5.89-.59a2.07 2.07 0 00-2-2.1 2.15 2.15 0 00-2.07 2.1h4.07z" fill="#FFF" fill-rule="nonzero"/><path d="M174.61 0v71.06" stroke="#FFF"/></g></svg>